<mxfile host="app.diagrams.net" modified="2022-01-23T18:38:15.998Z" agent="5.0 (Windows)" etag="987gx7mFMlpcQAk1RqGi" version="16.0.3" type="github">
  <diagram id="XMKOl0biVKWI42RTtHRF" name="Page-1">
    <mxGraphModel dx="1038" dy="572" grid="1" gridSize="10" guides="1" tooltips="1" connect="1" arrows="1" fold="1" page="1" pageScale="1" pageWidth="827" pageHeight="1169" math="0" shadow="0">
      <root>
        <mxCell id="0" />
        <mxCell id="1" parent="0" />
        <mxCell id="JzsrKP5LPSq8Ja_fr5tb-1" value="&lt;div&gt;Allgemein&lt;/div&gt;" style="aspect=fixed;perimeter=ellipsePerimeter;html=1;align=center;shadow=0;dashed=0;spacingTop=3;image;image=img/lib/active_directory/user_accounts.svg;" vertex="1" parent="1">
          <mxGeometry x="380" y="40" width="50" height="48.5" as="geometry" />
        </mxCell>
        <mxCell id="JzsrKP5LPSq8Ja_fr5tb-7" style="edgeStyle=none;rounded=0;orthogonalLoop=1;jettySize=auto;html=1;" edge="1" parent="1" source="JzsrKP5LPSq8Ja_fr5tb-2" target="JzsrKP5LPSq8Ja_fr5tb-1">
          <mxGeometry relative="1" as="geometry" />
        </mxCell>
        <mxCell id="JzsrKP5LPSq8Ja_fr5tb-10" style="edgeStyle=none;rounded=0;orthogonalLoop=1;jettySize=auto;html=1;" edge="1" parent="1" source="JzsrKP5LPSq8Ja_fr5tb-2" target="JzsrKP5LPSq8Ja_fr5tb-3">
          <mxGeometry relative="1" as="geometry" />
        </mxCell>
        <mxCell id="JzsrKP5LPSq8Ja_fr5tb-2" value="&lt;div&gt;PCL&lt;/div&gt;" style="aspect=fixed;perimeter=ellipsePerimeter;html=1;align=center;shadow=0;dashed=0;spacingTop=3;image;image=img/lib/active_directory/user_accounts.svg;" vertex="1" parent="1">
          <mxGeometry x="540" y="190" width="50" height="48.5" as="geometry" />
        </mxCell>
        <mxCell id="JzsrKP5LPSq8Ja_fr5tb-5" style="rounded=0;orthogonalLoop=1;jettySize=auto;html=1;exitX=0.5;exitY=0;exitDx=0;exitDy=0;" edge="1" parent="1" source="JzsrKP5LPSq8Ja_fr5tb-3" target="JzsrKP5LPSq8Ja_fr5tb-1">
          <mxGeometry relative="1" as="geometry" />
        </mxCell>
        <mxCell id="JzsrKP5LPSq8Ja_fr5tb-3" value="AD" style="aspect=fixed;perimeter=ellipsePerimeter;html=1;align=center;shadow=0;dashed=0;spacingTop=3;image;image=img/lib/active_directory/user_accounts.svg;" vertex="1" parent="1">
          <mxGeometry x="230" y="190" width="50" height="48.5" as="geometry" />
        </mxCell>
        <mxCell id="JzsrKP5LPSq8Ja_fr5tb-6" style="rounded=0;orthogonalLoop=1;jettySize=auto;html=1;" edge="1" parent="1" source="JzsrKP5LPSq8Ja_fr5tb-4" target="JzsrKP5LPSq8Ja_fr5tb-1">
          <mxGeometry relative="1" as="geometry" />
        </mxCell>
        <mxCell id="JzsrKP5LPSq8Ja_fr5tb-9" style="edgeStyle=none;rounded=0;orthogonalLoop=1;jettySize=auto;html=1;" edge="1" parent="1" source="JzsrKP5LPSq8Ja_fr5tb-4" target="JzsrKP5LPSq8Ja_fr5tb-3">
          <mxGeometry relative="1" as="geometry" />
        </mxCell>
        <mxCell id="JzsrKP5LPSq8Ja_fr5tb-11" style="edgeStyle=none;rounded=0;orthogonalLoop=1;jettySize=auto;html=1;exitX=1;exitY=0;exitDx=0;exitDy=0;" edge="1" parent="1" source="JzsrKP5LPSq8Ja_fr5tb-4" target="JzsrKP5LPSq8Ja_fr5tb-2">
          <mxGeometry relative="1" as="geometry" />
        </mxCell>
        <mxCell id="JzsrKP5LPSq8Ja_fr5tb-4" value="GL" style="aspect=fixed;perimeter=ellipsePerimeter;html=1;align=center;shadow=0;dashed=0;spacingTop=3;image;image=img/lib/active_directory/user_accounts.svg;" vertex="1" parent="1">
          <mxGeometry x="380" y="330" width="50" height="48.5" as="geometry" />
        </mxCell>
      </root>
    </mxGraphModel>
  </diagram>
</mxfile>
